# This file uses centimeters as units for non-parametric coordinates.

mtllib brTile.mtl
g default
v -25.000000 0.000000 75.000000
v -25.000000 0.000000 25.000000
v 25.000000 0.000000 25.000000
v 25.000000 0.000000 57.001801
v 19.728455 0.000000 69.728451
v 7.001801 0.000000 75.000000
v 25.000000 30.000000 57.001801
v 7.001801 30.000000 75.000000
v 19.728455 30.000000 69.728451
v -25.000000 15.000000 75.000000
v -25.000000 15.000000 25.000000
v 25.000000 15.000000 25.000000
v 25.000000 12.488872 57.001801
v 19.728455 8.403545 69.728451
v 7.001801 11.699338 75.000000
v -22.907166 30.000000 27.092836
v -25.000000 27.907164 25.000000
v 25.000000 27.907164 25.000000
v 25.000000 30.000000 27.092836
v -22.907166 30.000000 75.000000
v -25.000000 27.907164 75.000000
v 35.000000 27.907164 25.000000
v 32.883545 30.000000 27.092836
v 34.619400 27.907164 58.915215
v 32.531921 30.000000 58.426178
v 26.261276 27.907164 76.261261
v 24.693558 30.000000 74.693542
v 8.915222 27.907164 84.619396
v 8.426193 30.000000 82.531918
v -22.907166 30.000000 82.883545
v -25.000000 27.907164 85.000000
v 31.862793 12.488872 58.366894
v 34.619400 15.243222 58.915215
v 35.000000 17.711876 25.000000
v 32.295364 15.000000 25.000000
v 24.301620 8.403545 74.301613
v 26.261276 11.067485 76.261261
v 8.370117 11.699338 81.878944
v 8.915222 14.442054 84.619396
v -25.000000 17.717600 85.000000
v -25.000000 15.000000 82.295010
vt 0.375000 0.750000
vt 0.125000 0.000000
vt 0.375000 0.000000
vt 0.714991 0.000000
vt 0.875000 0.000000
vt 0.535009 0.000000
vt 0.375000 1.000000
vt 0.625000 0.750000
vt 0.625000 0.910009
vt 0.535009 1.000000
vt 0.625000 1.000000
vt 0.625000 0.000000
vt 0.125000 0.125000
vt 0.625000 0.625000
vt 0.375000 0.517440
vt 0.375000 0.250000
vt 0.386698 0.488302
vt 0.625000 0.489536
vt 0.875000 0.232560
vt 0.864536 0.250000
vt 0.625000 0.339991
vt 0.385464 0.250000
vt 0.375000 0.125000
vt 0.125000 0.232560
vt 0.625000 0.517440
vt 0.375000 0.625000
vt 0.864536 0.250000
vt 0.714991 0.250000
vt 0.625000 0.250000
vt 0.715338 0.250000
vt 0.535009 0.250000
vt 0.625000 0.250000
vt 0.385464 0.250000
vt 0.534662 0.250000
vt 0.875000 0.125000
vt 0.875000 0.232560
vt 0.375000 0.232560
vt 0.875000 0.147599
vt 0.375000 0.125000
vt 0.875000 0.125000
vt 0.714991 0.125000
vt 0.714991 0.125000
vt 0.625000 0.125000
vt 0.625000 0.125000
vt 0.535009 0.125000
vt 0.535009 0.125000
vt 0.714991 0.232560
vt 0.714991 0.144215
vt 0.625000 0.232560
vt 0.625000 0.139691
vt 0.535009 0.232560
vt 0.375000 0.147647
vt 0.535009 0.143201
vt 0.375000 0.232560
vn 0.000000 0.000000 1.000000
vn 0.095017 0.000000 0.995476
vn 0.079654 0.000000 0.996823
vn 0.000000 0.000000 1.000000
vn 0.000000 0.000000 -1.000000
vn 0.000000 0.000000 -1.000000
vn 0.000000 0.000000 -1.000000
vn 0.000000 0.000000 -1.000000
vn 1.000000 0.000000 0.000000
vn 0.996907 0.000000 0.078590
vn 0.995411 0.000000 0.095698
vn 1.000000 0.000000 0.000000
vn -1.000000 0.000000 0.000000
vn -1.000000 0.000000 0.000000
vn -1.000000 0.000000 0.000000
vn -1.000000 0.000000 0.000000
vn 0.382683 0.000000 0.923880
vn 0.382683 0.000000 0.923880
vn 0.923880 0.000000 0.382683
vn 0.923880 0.000000 0.382683
vn 0.000000 -1.000000 0.000000
vn 0.000000 -1.000000 0.000000
vn 0.000000 -1.000000 0.000000
vn 0.000000 -1.000000 0.000000
vn -0.707107 0.707106 0.000000
vn -0.707107 0.707106 0.000000
vn -0.707107 0.707106 0.000000
vn -0.707107 0.707106 0.000000
vn 0.000000 0.707107 -0.707107
vn 0.000000 0.707107 -0.707107
vn 0.000000 0.707107 -0.707107
vn 0.000000 0.707107 -0.707107
vn 0.000000 0.707107 -0.707107
vn 0.000000 0.707107 -0.707107
vn -0.707107 0.707106 0.000000
vn -0.707107 0.707106 0.000000
vn 0.707061 0.707108 0.007935
vn 0.707061 0.707108 0.007935
vn 0.689142 0.714954 0.118006
vn 0.689142 0.714954 0.118006
vn 0.485384 0.727190 0.485383
vn 0.485384 0.727190 0.485384
vn 0.118006 0.714953 0.689142
vn 0.118006 0.714953 0.689142
vn 0.007935 0.707107 0.707062
vn 0.007935 0.707107 0.707062
vn 0.000000 1.000000 0.000000
vn 0.000000 1.000000 0.000000
vn 0.000000 1.000000 0.000000
vn -1.000000 0.000000 0.000000
vn -1.000000 0.000000 0.000000
vn 0.000000 0.000000 -1.000000
vn -0.000000 0.000000 -1.000000
vn -0.000000 0.000000 -1.000000
vn -0.000000 0.000000 -1.000000
vn 0.000000 1.000000 0.000000
vn 0.000000 1.000000 0.000000
vn 0.000000 1.000000 0.000000
vn 0.000000 1.000000 0.000000
vn 0.000000 1.000000 0.000000
vn 0.000000 1.000000 0.000000
vn 0.000000 1.000000 0.000000
vn 0.000000 1.000000 0.000000
vn -1.000000 0.000000 0.000000
vn -1.000000 0.000000 0.000000
vn 0.000000 -1.000000 0.000000
vn 0.000000 -1.000000 0.000000
vn 0.710970 -0.702215 0.037628
vn 0.710944 -0.702904 0.022017
vn 0.704573 -0.690004 0.165746
vn 0.704573 -0.690003 0.165746
vn 0.708938 -0.703926 -0.043532
vn 0.708938 -0.703926 -0.043532
vn 0.193517 -0.693201 0.694280
vn 0.193517 -0.693201 0.694280
vn 0.019450 -0.704051 0.709883
vn 0.037484 -0.703930 0.709279
vn -0.060191 -0.701842 0.709785
vn -0.060191 -0.701842 0.709785
vn 0.041182 -0.991610 -0.122535
vn 0.007381 -0.997038 -0.076553
vn 0.007381 -0.997038 -0.076553
vn 0.040303 -0.991793 -0.121341
vn -0.033486 -0.997211 -0.066704
vn -0.033124 -0.997197 -0.067090
vn -0.125812 -0.991407 0.035835
vn -0.125080 -0.991526 0.035081
vn -0.100404 -0.994900 0.009693
vn -0.100404 -0.994900 0.009693
vn 0.980889 0.000000 0.194567
vn 0.976977 0.000000 0.213345
vn 0.999937 0.000000 0.011221
vn 0.999937 0.000000 0.011221
vn 0.900873 0.000000 0.434082
vn 0.900873 0.000000 0.434082
vn 0.211807 0.000000 0.977312
vn 0.434082 0.000000 0.900873
vn 0.434083 0.000000 0.900873
vn 0.193779 0.000000 0.981045
vn 0.011222 0.000000 0.999937
vn 0.011222 0.000000 0.999937
vn -1.000000 0.000000 0.000000
vn 0.000000 0.000000 -1.000000
s 1
g brTile groundTiles
usemtl lambert3SG
f 1/3/1 6/6/2 15/46/3 10/23/4
s 2
f 11/26/5 12/14/6 3/8/7 2/1/8
s 3
f 12/35/9 13/42/10 4/4/11 3/5/12
s 4
f 2/2/13 1/3/14 10/23/15 11/13/16
s 1
f 6/6/2 5/12/17 14/44/18 15/46/3
s 3
f 5/12/19 4/4/11 13/42/10 14/44/20
s 5
f 6/10/21 2/1/22 4/9/23 5/11/24
s 6
usemtl lambert2SG
f 16/17/25 17/15/26 21/16/27 20/22/28
s 7
f 17/15/29 16/17/30 19/18/31 18/25/32
f 18/19/32 19/27/31 23/20/33 22/36/34
s 6
f 20/22/28 21/37/27 31/54/35 30/33/36
s 8
f 22/36/37 23/20/38 25/30/39 24/47/40
f 24/47/40 25/30/39 27/32/41 26/49/42
f 26/49/42 27/32/41 29/34/43 28/51/44
f 28/51/44 29/34/43 30/33/45 31/54/46
s 9
f 8/31/47 16/17/48 20/22/49
s 4
f 11/13/16 10/23/15 21/37/50 17/24/51
s 2
f 17/15/52 18/25/53 12/14/6 11/26/5
f 35/40/54 18/19/53 34/38/55
s 9
f 19/27/56 7/28/57 25/30/58 23/20/59
f 7/28/57 9/29/60 27/32/61 25/30/58
f 9/29/60 8/31/47 29/34/62 27/32/61
f 8/31/47 20/22/49 30/33/63 29/34/62
s 4
f 21/37/50 41/39/64 40/52/65
s 9
f 7/21/57 16/17/48 8/31/47 9/29/60
f 7/21/57 19/18/56 16/17/48
s 5
usemtl lambert3SG
f 1/7/66 2/1/22 6/10/21
f 4/9/23 2/1/22 3/8/67
s 11
usemtl lambert2SG
f 32/41/68 33/48/69 37/50/70 36/43/71
f 33/48/69 32/41/68 35/40/72 34/38/73
s 12
f 36/43/74 37/50/75 39/53/76 38/45/77
f 38/45/77 39/53/76 40/52/78 41/39/79
s 13
f 13/42/80 12/35/81 35/40/82 32/41/83
f 14/44/84 13/42/80 32/41/83 36/43/85
f 15/46/86 14/44/84 36/43/85 38/45/87
f 10/23/88 15/46/86 38/45/87 41/39/89
s 14
f 24/47/90 33/48/91 34/38/92 22/36/93
f 37/50/94 33/48/91 24/47/90 26/49/95
s 15
f 39/53/96 37/50/97 26/49/98 28/51/99
f 40/52/100 39/53/96 28/51/99 31/54/101
s 4
f 21/37/50 40/52/65 31/54/102
f 21/37/50 10/23/15 41/39/64
s 2
f 34/38/55 18/19/53 22/36/103
f 12/35/6 18/19/53 35/40/54
