# This file uses centimeters as units for non-parametric coordinates.

mtllib frontTile1.mtl
g default
v -50.000000 0.000000 25.000000
v -30.000000 0.000000 25.000000
v -10.000000 0.000000 25.000000
v 10.000000 0.000000 25.000000
v 30.000000 0.000000 25.000000
v 50.000000 0.000000 25.000000
v -30.000000 29.943176 25.000000
v -10.000000 29.943186 25.000000
v 10.000000 29.943176 25.000000
v 30.000000 29.943176 25.000000
v -50.000000 0.000000 -25.000000
v -30.000000 0.000000 -25.000000
v -10.000000 0.000000 -25.000000
v 10.000000 0.000000 -25.000000
v 30.000000 0.000000 -25.000000
v 50.000000 0.000000 -25.000000
v -50.000000 15.000000 25.000000
v -50.000000 15.000000 -25.000000
v -30.000000 15.000000 -25.000000
v -10.000000 15.000000 -25.000000
v 10.000000 15.000000 -25.000000
v 30.000000 15.000000 -25.000000
v 50.000000 15.000000 -25.000000
v 50.000000 15.000000 25.000000
v 30.000000 5.977803 25.000000
v 10.000000 15.000000 25.000000
v -10.000000 18.626186 25.000000
v -30.000000 8.711493 25.000000
v -47.900211 29.943176 -22.900209
v -50.000000 27.900211 -25.000000
v -30.000000 29.943176 -22.900209
v -30.000000 27.900211 -25.000000
v -10.000000 29.943176 -22.900209
v -10.000000 27.900209 -25.000000
v 10.000000 29.943176 -22.900209
v 10.000000 27.900209 -25.000000
v 30.000000 29.943176 -22.900209
v 30.000000 27.900209 -25.000000
v 47.900208 29.943176 -22.900209
v 50.000000 27.900209 -25.000000
v -47.900211 29.943176 25.000000
v -50.000000 27.900209 25.000000
v 50.000000 27.900209 25.000000
v 47.900208 29.943176 25.000000
v 50.000000 27.900209 35.000000
v 47.900208 29.943176 32.900211
v 30.000000 27.900209 35.000000
v 30.000000 29.943176 32.900211
v 10.000000 27.900209 35.000000
v 10.000000 29.943176 32.900211
v -10.000000 27.900209 35.000000
v -10.000000 29.943176 32.900211
v -30.000000 27.900211 35.000000
v -30.000000 29.943176 32.900211
v -47.900211 29.943176 32.900211
v -50.000000 27.900211 35.000000
v 50.000000 17.925964 35.000000
v 50.000000 15.000000 32.332859
v 30.000000 5.977803 32.332859
v 30.000000 8.903769 35.000000
v 10.000000 15.000000 32.332859
v 10.798141 17.565914 35.000000
v -10.000000 18.626186 32.332859
v -10.393269 21.408115 35.000000
v -30.000000 8.711493 32.332859
v -30.223423 11.577619 35.000000
v -50.000000 17.795876 35.000000
v -50.000000 15.000000 32.332859
vt 0.375000 0.000000
vt 0.425000 0.000000
vt 0.475000 0.000000
vt 0.525000 0.000000
vt 0.575000 0.000000
vt 0.625000 0.000000
vt 0.375000 0.750000
vt 0.425000 0.750000
vt 0.475000 0.750000
vt 0.525000 0.750000
vt 0.575000 0.750000
vt 0.625000 0.750000
vt 0.375000 1.000000
vt 0.425000 1.000000
vt 0.475000 1.000000
vt 0.525000 1.000000
vt 0.575000 1.000000
vt 0.625000 1.000000
vt 0.875000 0.000000
vt 0.125000 0.000000
vt 0.125000 0.125000
vt 0.625000 0.625000
vt 0.375000 0.517498
vt 0.380249 0.489501
vt 0.619751 0.489501
vt 0.375000 0.250000
vt 0.619751 0.250000
vt 0.380249 0.250000
vt 0.425000 0.489501
vt 0.475000 0.489501
vt 0.525000 0.489501
vt 0.575000 0.489501
vt 0.375000 0.125000
vt 0.125000 0.232502
vt 0.425000 0.517498
vt 0.375000 0.625000
vt 0.475000 0.517498
vt 0.425000 0.625000
vt 0.525000 0.517498
vt 0.475000 0.625000
vt 0.575000 0.517498
vt 0.525000 0.625000
vt 0.625000 0.517498
vt 0.575000 0.625000
vt 0.875000 0.125000
vt 0.875000 0.232502
vt 0.625000 0.232502
vt 0.619751 0.250000
vt 0.575000 0.250000
vt 0.525000 0.250000
vt 0.575000 0.250000
vt 0.475000 0.250000
vt 0.525000 0.250000
vt 0.425000 0.250000
vt 0.475000 0.250000
vt 0.380249 0.250000
vt 0.425000 0.250000
vt 0.625000 0.125000
vt 0.625000 0.232502
vt 0.375000 0.232502
vt 0.625000 0.149383
vt 0.375000 0.125000
vt 0.625000 0.125000
vt 0.575000 0.125000
vt 0.575000 0.125000
vt 0.525000 0.125000
vt 0.525000 0.125000
vt 0.475000 0.125000
vt 0.475000 0.125000
vt 0.425000 0.125000
vt 0.425000 0.125000
vt 0.575000 0.232502
vt 0.575000 0.139348
vt 0.525000 0.232502
vt 0.526995 0.146383
vt 0.475000 0.232502
vt 0.474017 0.157247
vt 0.425000 0.232502
vt 0.375000 0.148299
vt 0.424441 0.140663
vt 0.375000 0.232502
vn 0.000000 0.000000 1.000000
vn -0.000000 0.000000 1.000000
vn -0.000000 0.000000 1.000000
vn 0.000000 0.000000 1.000000
vn -0.000000 0.000000 1.000000
vn -0.000000 0.000000 1.000000
vn 0.000000 0.000000 1.000000
vn 0.000000 0.000000 1.000000
vn 0.000000 0.000000 1.000000
vn 0.000000 0.000000 1.000000
vn 0.000000 0.000000 1.000000
vn 0.000000 0.000000 1.000000
vn 0.000000 0.000000 -1.000000
vn -0.000000 0.000000 -1.000000
vn 0.000000 0.000000 -1.000000
vn 0.000000 0.000000 -1.000000
vn -0.000000 0.000000 -1.000000
vn 0.000000 0.000000 -1.000000
vn 0.000000 0.000000 -1.000000
vn 0.000000 0.000000 -1.000000
vn 0.000000 0.000000 -1.000000
vn 0.000000 0.000000 -1.000000
vn 0.000000 0.000000 -1.000000
vn 0.000000 0.000000 -1.000000
vn 0.000000 -1.000000 0.000000
vn 0.000000 -1.000000 0.000000
vn 0.000000 -1.000000 0.000000
vn 0.000000 -1.000000 0.000000
vn 0.000000 -1.000000 0.000000
vn 0.000000 -1.000000 0.000000
vn 0.000000 -1.000000 0.000000
vn 0.000000 -1.000000 0.000000
vn 0.000000 -1.000000 0.000000
vn 0.000000 -1.000000 0.000000
vn 0.000000 -1.000000 0.000000
vn 0.000000 -1.000000 0.000000
vn 1.000000 0.000000 0.000000
vn 1.000000 0.000000 0.000000
vn 1.000000 0.000000 0.000000
vn 1.000000 0.000000 0.000000
vn -1.000000 0.000000 0.000000
vn -1.000000 0.000000 0.000000
vn -1.000000 0.000000 0.000000
vn -1.000000 0.000000 0.000000
vn -0.697342 0.716738 0.000000
vn -0.697342 0.716738 0.000000
vn -0.697342 0.716738 -0.000000
vn -0.697342 0.716738 -0.000000
vn 0.000000 0.716738 -0.697342
vn 0.000000 0.716738 -0.697342
vn 0.000000 0.716739 -0.697342
vn 0.000000 0.716739 -0.697342
vn 0.000000 0.716738 -0.697342
vn 0.000000 0.716738 -0.697342
vn 0.000000 0.716738 -0.697342
vn 0.000000 0.716738 -0.697342
vn 0.000000 0.716738 -0.697342
vn 0.000000 0.716738 -0.697342
vn 0.000000 0.716738 -0.697342
vn 0.000000 0.716738 -0.697342
vn 0.697342 0.716739 0.000000
vn 0.697342 0.716739 0.000000
vn 0.697342 0.716739 0.000000
vn 0.697342 0.716739 0.000000
vn -0.697342 0.716738 -0.000000
vn -0.697342 0.716738 -0.000000
vn 0.697342 0.716739 0.000000
vn 0.697342 0.716739 0.000000
vn 0.000000 0.716738 0.697343
vn 0.000000 0.716738 0.697343
vn 0.000000 0.716738 0.697343
vn 0.000000 0.716738 0.697343
vn 0.000000 0.716738 0.697343
vn 0.000000 0.716738 0.697343
vn 0.000000 0.716738 0.697342
vn 0.000000 0.716738 0.697342
vn 0.000000 0.716738 0.697342
vn 0.000000 0.716738 0.697342
vn 0.000000 0.716738 0.697342
vn 0.000000 0.716738 0.697342
vn 0.000000 1.000000 0.000000
vn 0.000000 1.000000 0.000000
vn -0.000000 1.000000 0.000000
vn -0.000000 1.000000 -0.000000
vn 0.000000 1.000000 0.000000
vn 0.000000 1.000000 0.000000
vn 0.000000 1.000000 0.000000
vn 0.000000 1.000000 0.000000
vn -0.000000 1.000000 0.000000
vn 0.000000 1.000000 -0.000000
vn 0.000000 1.000000 0.000000
vn 0.000000 1.000000 -0.000000
vn -1.000000 0.000000 0.000000
vn -1.000000 0.000000 0.000000
vn 0.000000 0.000000 -1.000000
vn -0.000000 0.000000 -1.000000
vn -0.000000 0.000000 -1.000000
vn 0.000000 0.000000 -1.000000
vn 0.000000 0.000000 -1.000000
vn 0.000000 0.000000 -1.000000
vn 1.000000 0.000000 0.000000
vn 1.000000 0.000000 0.000000
vn 1.000000 0.000000 0.000000
vn 1.000000 0.000000 0.000000
vn 0.000000 1.000000 0.000000
vn 0.000000 1.000000 0.000000
vn 0.000000 1.000000 0.000000
vn -0.000000 1.000000 0.000001
vn -0.000000 1.000000 0.000000
vn 0.000000 1.000000 0.000000
vn -1.000000 0.000000 0.000000
vn 0.290766 -0.644558 0.707107
vn 0.290766 -0.644558 0.707107
vn 0.290766 -0.644558 0.707107
vn 0.290766 -0.644558 0.707107
vn -0.290767 -0.644558 0.707107
vn -0.290767 -0.644558 0.707107
vn -0.210349 -0.672318 0.709748
vn -0.210349 -0.672318 0.709748
vn 0.103148 -0.680730 0.725236
vn 0.103148 -0.680730 0.725236
vn 0.314064 -0.633533 0.707107
vn 0.314064 -0.633533 0.707107
vn -0.212095 -0.674548 0.707107
vn -0.212095 -0.674549 0.707107
vn -0.212095 -0.674548 0.707107
vn -0.212095 -0.674548 0.707107
vn 0.411206 -0.911543 0.000000
vn 0.411206 -0.911543 0.000000
vn 0.411206 -0.911543 0.000000
vn 0.411206 -0.911543 0.000000
vn -0.301496 -0.953468 0.000000
vn -0.411206 -0.911543 0.000000
vn -0.411206 -0.911543 0.000000
vn -0.301496 -0.953468 0.000000
vn -0.178401 -0.983958 0.000000
vn -0.178401 -0.983958 0.000000
vn 0.444154 -0.895951 0.000000
vn 0.444154 -0.895951 0.000000
vn 0.444154 -0.895951 0.000000
vn 0.444154 -0.895951 0.000000
vn -0.299948 -0.953956 0.000000
vn -0.299948 -0.953956 0.000000
vn -0.299948 -0.953956 0.000000
vn -0.299948 -0.953956 0.000000
vn 0.000000 0.000000 1.000000
vn 0.000000 0.000000 1.000000
vn 0.000000 0.000000 1.000000
vn 0.000000 0.000000 1.000000
vn 0.000000 0.000000 1.000000
vn 0.000000 0.000000 1.000000
vn 0.000000 0.000000 1.000000
vn 0.000000 0.000000 1.000000
vn 0.000000 0.000000 1.000000
vn 0.000000 0.000000 1.000000
vn -0.000000 0.000000 1.000000
vn -0.000000 0.000000 1.000000
vn 1.000000 0.000000 0.000000
vn -1.000000 0.000000 0.000000
vn -1.000000 0.000000 0.000000
s 1
g frontTile1 groundTiles
usemtl lambert3SG
f 1/1/1 2/2/2 28/71/3 17/33/4
f 2/2/2 3/3/5 27/69/6 28/71/3
f 3/3/5 4/4/7 26/67/8 27/69/6
f 4/4/7 5/5/9 25/65/10 26/67/8
f 5/5/9 6/6/11 24/58/12 25/65/10
s 2
f 18/36/13 19/38/14 12/8/15 11/7/16
f 19/38/14 20/40/17 13/9/18 12/8/15
f 20/40/17 21/42/19 14/10/20 13/9/18
f 21/42/19 22/44/21 15/11/22 14/10/20
f 22/44/21 23/22/23 16/12/24 15/11/22
s 3
f 12/8/25 2/14/26 1/13/27 11/7/28
f 13/9/29 3/15/30 2/14/26 12/8/25
f 14/10/31 4/16/32 3/15/30 13/9/29
f 15/11/33 5/17/34 4/16/32 14/10/31
f 6/18/35 5/17/34 15/11/33 16/12/36
s 4
f 24/58/37 6/6/38 16/19/39 23/45/40
s 5
f 18/21/41 11/20/42 1/1/43 17/33/44
s 6
usemtl lambert2SG
f 29/24/45 30/23/46 42/26/47 41/28/48
s 7
f 30/23/49 29/24/50 31/29/51 32/35/52
f 32/35/52 31/29/51 33/30/53 34/37/54
f 34/37/54 33/30/53 35/31/55 36/39/56
f 36/39/56 35/31/55 37/32/57 38/41/58
f 38/41/58 37/32/57 39/25/59 40/43/60
s 8
f 40/43/61 39/25/62 44/48/63 43/47/64
s 6
f 41/28/48 42/60/47 56/81/65 55/56/66
s 8
f 43/47/64 44/48/63 46/27/67 45/59/68
s 9
f 45/59/69 46/27/70 48/51/71 47/72/72
f 47/72/72 48/51/71 50/53/73 49/74/74
f 49/74/74 50/53/73 52/55/75 51/76/76
f 51/76/76 52/55/75 54/57/77 53/78/78
f 53/78/78 54/57/77 55/56/79 56/81/80
s 10
f 29/24/81 41/28/82 7/54/83 31/29/84
f 10/49/85 44/48/86 39/25/87 37/32/88
f 8/52/89 33/30/90 31/29/84 7/54/83
f 9/50/91 35/31/92 33/30/90 8/52/89
f 10/49/85 37/32/88 35/31/92 9/50/91
s 5
f 18/21/41 17/33/44 42/60/93 30/34/94
s 2
f 30/23/95 32/35/96 19/38/14 18/36/13
f 32/35/96 34/37/97 20/40/17 19/38/14
f 34/37/97 36/39/98 21/42/19 20/40/17
f 36/39/98 38/41/99 22/44/21 21/42/19
f 38/41/99 40/43/100 23/22/23 22/44/21
s 4
f 24/58/37 23/45/40 40/46/101 43/47/102
f 57/61/103 43/47/102 45/59/104
s 10
f 44/48/86 10/49/85 48/51/105 46/27/106
f 10/49/85 9/50/91 50/53/107 48/51/105
f 9/50/91 8/52/89 52/55/108 50/53/107
f 8/52/89 7/54/83 54/57/109 52/55/108
f 7/54/83 41/28/82 55/56/110 54/57/109
s 5
f 42/60/93 17/33/44 68/62/111
s off
f 58/63/112 57/61/113 60/73/114 59/64/115
s 13
f 59/64/116 60/73/117 62/75/118 61/66/119
f 61/66/119 62/75/118 64/77/120 63/68/121
f 63/68/121 64/77/120 66/80/122 65/70/123
s off
f 65/70/124 66/80/125 67/79/126 68/62/127
f 25/65/128 24/58/129 58/63/130 59/64/131
s 14
f 26/67/132 25/65/133 59/64/134 61/66/135
f 27/69/136 26/67/132 61/66/135 63/68/137
s off
f 28/71/138 27/69/139 63/68/140 65/70/141
f 17/33/142 28/71/143 65/70/144 68/62/145
s 15
f 60/73/146 57/61/147 45/59/148 47/72/149
f 62/75/150 60/73/146 47/72/149 49/74/151
f 64/77/152 62/75/150 49/74/151 51/76/153
f 66/80/154 64/77/152 51/76/153 53/78/155
f 67/79/156 66/80/154 53/78/155 56/81/157
s 4
f 24/58/37 43/47/102 58/63/158
f 58/63/158 43/47/102 57/61/103
s 5
f 42/60/93 67/79/159 56/81/160
f 42/60/93 68/62/111 67/79/159
