# This file uses centimeters as units for non-parametric coordinates.

mtllib leftHedge1.mtl
g default
v -45.314178 55.314178 4.001602
v -50.000000 44.001598 4.001602
v -45.314178 44.001598 15.314178
v -34.001587 44.001598 20.000000
v -34.001587 55.314178 15.314178
v -34.001587 60.000000 4.001602
v -45.314178 44.001598 -15.314178
v -50.000000 44.001598 -4.001617
v -45.314178 55.314178 -4.001617
v -34.001587 60.000000 -4.001617
v -34.001587 55.314178 -15.314178
v -34.001587 44.001598 -20.000000
v -50.000000 0.000000 4.001602
v -34.001587 0.000000 20.000000
v -45.314178 0.000000 15.314178
v -50.000000 0.000000 -4.001617
v -45.314178 0.000000 -15.314178
v -34.001587 0.000000 -20.000000
v -43.235046 53.235054 13.235062
v -43.235046 53.235054 -13.235077
v 0.000000 55.314178 15.314178
v 0.000000 60.000000 4.001602
v 0.000000 44.001598 20.000000
v 0.000000 55.314178 -15.314178
v 0.000000 44.001598 -20.000000
v 0.000000 60.000000 -4.001617
v 0.000000 0.000000 20.000000
v 0.000000 0.000000 -20.000000
vt 0.275010 0.183340
vt 0.286533 0.250000
vt 0.213467 0.250000
vt 0.224990 0.183340
vt 0.375000 0.338467
vt 0.414996 0.349990
vt 0.414996 0.400010
vt 0.375000 0.411533
vt 0.414996 0.183340
vt 0.352538 0.187895
vt 0.375000 0.000000
vt 0.414996 0.000000
vt 0.275010 -0.000000
vt 0.412983 0.264059
vt 0.500000 0.264059
vt 0.500000 0.349990
vt 0.500000 0.183340
vt 0.125000 0.204880
vt 0.125000 0.000000
vt 0.224990 -0.000000
vt 0.375000 0.545120
vt 0.414996 0.566660
vt 0.414996 0.750000
vt 0.375000 0.750000
vt 0.412983 0.485941
vt 0.500000 0.485941
vt 0.500000 0.566660
vt 0.500000 0.400010
vt 0.500000 0.000000
vt 0.500000 0.750000
vt 0.500000 1.000000
vt 0.414996 1.000000
vt 0.375000 1.000000
vt 0.375000 0.900010
vt 0.375000 0.849990
vt 0.375000 0.250000
vt 0.375000 0.500000
vt 0.125000 0.250000
vn -0.971741 0.067764 0.226115
vn -0.917665 0.357413 0.173629
vn -0.917665 0.357413 -0.173629
vn -0.971741 0.067764 -0.226115
vn -0.357412 0.917665 0.173629
vn -0.083254 0.971083 0.223756
vn -0.083254 0.971083 -0.223756
vn -0.357412 0.917665 -0.173629
vn -0.096638 0.077838 0.992271
vn -0.375942 0.055127 0.925002
vn -0.382683 0.000000 0.923880
vn -0.102859 0.000000 0.994696
vn -0.925002 0.055127 0.375942
vn -0.971813 0.000000 0.235752
vn -0.923880 0.000000 0.382683
vn -0.068072 0.924851 0.374188
vn 0.000000 0.923880 0.382683
vn 0.000000 0.971813 0.235752
vn -0.068072 0.374188 0.924851
vn 0.000000 0.084411 0.996431
vn 0.000000 0.382683 0.923880
vn -0.925002 0.055127 -0.375943
vn -0.923879 0.000000 -0.382684
vn -0.971813 0.000000 -0.235753
vn -0.375942 0.055127 -0.925002
vn -0.096638 0.077838 -0.992271
vn -0.102859 0.000000 -0.994696
vn -0.382683 0.000000 -0.923880
vn -0.068071 0.374187 -0.924851
vn 0.000000 0.382683 -0.923880
vn 0.000000 0.084411 -0.996431
vn -0.068072 0.924851 -0.374188
vn 0.000000 0.971813 -0.235752
vn 0.000000 0.923879 -0.382684
vn 0.000000 0.000000 1.000000
vn 0.000000 0.000000 -1.000000
vn 0.000000 -1.000000 0.000000
vn 0.000000 -1.000000 0.000000
vn 0.000000 -1.000000 0.000000
vn 0.000000 -1.000000 0.000000
vn 0.000000 -1.000000 0.000000
vn 0.000000 -1.000000 0.000000
vn 0.000000 -1.000000 0.000000
vn 0.000000 -1.000000 0.000000
vn -0.325269 0.887919 0.325270
vn -0.887919 0.325270 0.325270
vn -0.325269 0.325269 0.887919
vn -0.325268 0.325269 -0.887919
vn -0.887919 0.325269 -0.325270
vn -0.325269 0.887919 -0.325270
vn 1.000000 0.000000 0.000000
vn 1.000000 0.000000 0.000000
vn 1.000000 0.000000 0.000000
vn 1.000000 0.000000 0.000000
vn 1.000000 0.000000 0.000000
vn 1.000000 0.000000 0.000000
vn 1.000000 0.000000 0.000000
vn 1.000000 0.000000 0.000000
s 1
g leftHedge1 hedges
usemtl lambert5SG
f 2/1/1 1/2/2 9/3/3 8/4/4
s 2
f 1/5/5 6/6/6 10/7/7 9/8/8
s 3
f 4/9/9 3/10/10 15/11/11 14/12/12
s 1
f 3/10/13 2/1/1 13/13/14 15/11/15
s 2
f 6/6/6 5/14/16 21/15/17 22/16/18
s 3
f 5/14/19 4/9/9 23/17/20 21/15/21
s 1
f 8/4/4 7/18/22 17/19/23 16/20/24
s 4
f 7/21/25 12/22/26 18/23/27 17/24/28
f 12/22/26 11/25/29 24/26/30 25/27/31
s 2
f 11/25/32 10/7/7 26/28/33 24/26/34
s 3
f 4/9/9 14/12/12 27/29/35 23/17/20
s 2
f 6/6/6 22/16/18 26/28/33 10/7/7
s 4
f 12/22/26 25/27/31 28/30/36 18/23/27
s 1
f 8/4/4 16/20/24 13/13/14 2/1/1
s off
f 28/30/37 27/31/38 14/32/39 15/33/40 13/34/41 16/35/42 17/24/43 18/23/44
s 2
f 5/14/16 6/6/6 1/5/5 19/36/45
s 1
f 1/2/2 2/1/1 3/10/13 19/36/46
s 3
f 3/10/10 4/9/9 5/14/19 19/36/47
s 4
f 11/25/29 12/22/26 7/21/25 20/37/48
s 1
f 7/18/22 8/4/4 9/3/3 20/38/49
s 2
f 9/8/8 10/7/7 11/25/32 20/37/50
s 5
f 25/27/51 23/17/52 27/31/53 28/30/54
f 24/26/55 21/15/56 23/17/52 25/27/51
f 22/16/57 21/15/56 24/26/55 26/28/58
