# This file uses centimeters as units for non-parametric coordinates.

mtllib middleHedge1.mtl
g default
v -50.045746 44.001598 20.000000
v -50.045746 55.314178 15.314178
v -50.045746 60.000000 4.001602
v 50.045769 60.000000 4.001602
v 50.045769 55.314178 15.314178
v 50.045769 44.001598 20.000000
v -50.045746 60.000000 -4.001587
v -50.045746 55.314178 -15.314178
v -50.045746 44.001598 -20.000000
v 50.045769 44.001598 -20.000000
v 50.045769 55.314178 -15.314178
v 50.045769 60.000000 -4.001587
v -50.045746 0.000000 20.000000
v 50.045769 0.000000 20.000000
v -50.045746 0.000000 -20.000000
v 50.045769 0.000000 -20.000000
vt 0.414996 0.000000
vt 0.414996 0.183340
vt 0.585004 0.183340
vt 0.585004 0.000000
vt 0.414996 0.750000
vt 0.414996 0.400010
vt 0.585004 0.400010
vt 0.585004 0.750000
vt 0.414996 0.349990
vt 0.585004 0.349990
vt 0.414996 0.566660
vt 0.585004 0.566660
vt 0.412983 0.264059
vt 0.587017 0.264059
vt 0.412983 0.485941
vt 0.587017 0.485941
vn 0.000000 0.971813 0.235753
vn 0.000000 0.923880 0.382683
vn 0.000000 0.923880 0.382683
vn 0.000000 0.971813 0.235753
vn 0.000000 0.382683 0.923880
vn 0.000000 0.084411 0.996431
vn 0.000000 0.084411 0.996431
vn 0.000000 0.382683 0.923880
vn 0.000000 0.084411 -0.996431
vn 0.000000 0.382683 -0.923880
vn 0.000000 0.382683 -0.923880
vn 0.000000 0.084411 -0.996431
vn 0.000000 0.923880 -0.382683
vn 0.000000 0.971813 -0.235753
vn 0.000000 0.971813 -0.235753
vn 0.000000 0.923880 -0.382683
vn 0.000000 0.000000 1.000000
vn 0.000000 0.000000 1.000000
vn 0.000000 0.000000 -1.000000
vn 0.000000 0.000000 -1.000000
vn 0.000000 -1.000000 0.000000
vn 0.000000 -1.000000 0.000000
vn 0.000000 -1.000000 0.000000
vn 0.000000 -1.000000 0.000000
vn -1.000000 0.000000 0.000000
vn -1.000000 0.000000 0.000000
vn -1.000000 0.000000 0.000000
vn -1.000000 0.000000 0.000000
vn 1.000000 -0.000000 0.000000
vn 1.000000 -0.000000 0.000000
vn 1.000000 -0.000000 0.000000
vn 1.000000 -0.000000 0.000000
vn 1.000000 0.000000 0.000000
vn 1.000000 0.000000 0.000000
vn 1.000000 0.000000 0.000000
vn 1.000000 0.000000 0.000000
vn -1.000000 0.000000 0.000000
vn -1.000000 0.000000 0.000000
vn -1.000000 0.000000 0.000000
vn -1.000000 0.000000 0.000000
s 1
g middleHedge1 hedges
usemtl lambert5SG
f 3/9/1 2/13/2 5/14/3 4/10/4
s 2
f 2/13/5 1/2/6 6/3/7 5/14/8
s 3
f 9/11/9 8/15/10 11/16/11 10/12/12
s 1
f 8/15/13 7/6/14 12/7/15 11/16/16
s 2
f 1/2/6 13/1/17 14/4/18 6/3/7
s 1
f 3/9/1 4/10/4 12/7/15 7/6/14
s 3
f 9/11/9 10/12/12 16/8/19 15/5/20
s off
f 14/4/21 13/1/22 15/5/23 16/8/24
s 4
f 7/6/25 8/15/26 2/13/27 3/9/28
s 5
f 4/10/29 5/14/30 11/16/31 12/7/32
f 10/12/33 6/3/34 14/4/35 16/8/36
f 11/16/31 5/14/30 6/3/34 10/12/33
s 4
f 1/2/37 9/11/38 15/5/39 13/1/40
f 2/13/27 8/15/26 9/11/38 1/2/37
