# This file uses centimeters as units for non-parametric coordinates.

mtllib middleTile.mtl
g default
v -50.000000 0.000000 50.000000
v 50.000000 0.000000 50.000000
v -50.000000 0.000000 -50.000000
v 50.000000 0.000000 -50.000000
v -50.000000 15.000000 50.000000
v -50.000000 15.000000 -50.000000
v 50.000000 15.000000 -50.000000
v 50.000000 15.000000 50.000000
v -47.900211 30.499263 47.900211
v -50.000000 27.900209 50.000000
v 47.900208 30.499263 47.900211
v 50.000000 27.900209 50.000000
v -47.900211 30.499263 -47.900208
v -50.000000 27.900209 -50.000000
v 47.900208 30.499263 -47.900208
v 50.000000 27.900209 -50.000000
v -47.900211 30.499263 -10.000000
v 47.900208 30.499263 -10.000000
vt 0.375000 0.000000
vt 0.625000 0.000000
vt 0.375000 0.750000
vt 0.625000 0.750000
vt 0.375000 1.000000
vt 0.625000 1.000000
vt 0.875000 0.000000
vt 0.125000 0.000000
vt 0.125000 0.125000
vt 0.625000 0.625000
vt 0.380249 0.255249
vt 0.375000 0.517498
vt 0.380249 0.494751
vt 0.619751 0.494751
vt 0.619751 0.255249
vt 0.619751 0.400000
vt 0.380249 0.400000
vt 0.375000 0.125000
vt 0.125000 0.232502
vt 0.375000 0.625000
vt 0.625000 0.517498
vt 0.875000 0.125000
vt 0.875000 0.232502
vt 0.625000 0.232502
vt 0.625000 0.125000
vt 0.375000 0.232502
vn 0.000000 0.000000 1.000000
vn 0.000000 0.000000 1.000000
vn 0.000000 0.000000 1.000000
vn 0.000000 0.000000 1.000000
vn 0.000000 0.000000 -1.000000
vn 0.000000 0.000000 -1.000000
vn 0.000000 0.000000 -1.000000
vn 0.000000 0.000000 -1.000000
vn 0.000000 -1.000000 0.000000
vn 0.000000 -1.000000 0.000000
vn 0.000000 -1.000000 0.000000
vn 0.000000 -1.000000 0.000000
vn 1.000000 0.000000 0.000000
vn 1.000000 0.000000 0.000000
vn 1.000000 0.000000 0.000000
vn 1.000000 0.000000 0.000000
vn -1.000000 0.000000 0.000000
vn -1.000000 0.000000 0.000000
vn -1.000000 0.000000 0.000000
vn -1.000000 0.000000 0.000000
vn 0.000000 0.628437 0.777860
vn 0.000000 0.628437 0.777860
vn 0.000000 0.628438 0.777860
vn 0.000000 0.628438 0.777860
vn -0.777861 0.628437 0.000000
vn -0.777861 0.628437 0.000000
vn -0.777861 0.628437 0.000000
vn -0.777861 0.628437 0.000000
vn -0.777861 0.628437 0.000000
vn 0.777860 0.628438 0.000000
vn 0.777860 0.628438 0.000000
vn 0.777860 0.628438 0.000000
vn 0.777860 0.628438 0.000000
vn 0.777860 0.628438 0.000000
vn 0.000000 0.628438 -0.777860
vn 0.000000 0.628438 -0.777860
vn 0.000000 0.628438 -0.777860
vn 0.000000 0.628438 -0.777860
vn 0.000000 1.000000 0.000000
vn 0.000000 1.000000 0.000000
vn 0.000000 1.000000 0.000000
vn 0.000000 1.000000 0.000000
vn 0.000000 1.000000 0.000000
vn 0.000000 1.000000 0.000000
vn -1.000000 0.000000 0.000000
vn -1.000000 0.000000 0.000000
vn 0.000000 0.000000 -1.000000
vn 0.000000 0.000000 -1.000000
vn 1.000000 0.000000 0.000000
vn 1.000000 0.000000 0.000000
vn 0.000000 0.000000 1.000000
vn 0.000000 0.000000 1.000000
s 1
g middleTile groundTiles
usemtl lambert3SG
f 5/18/1 1/1/2 2/2/3 8/25/4
s 2
f 4/4/5 3/3/6 6/20/7 7/10/8
s off
usemtl initialShadingGroup
f 2/6/9 1/5/10 3/3/11 4/4/12
s 3
usemtl lambert3SG
f 8/25/13 2/2/14 4/7/15 7/22/16
s 4
f 6/9/17 3/8/18 1/1/19 5/18/20
s off
usemtl lambert2SG
f 9/11/21 10/26/22 12/24/23 11/15/24
f 10/26/25 9/11/26 17/17/27 13/13/28 14/12/29
f 18/16/30 11/15/31 12/24/32 16/21/33 15/14/34
usemtl initialShadingGroup
f 14/12/35 13/13/36 15/14/37 16/21/38
usemtl lambert2SG
f 15/14/39 13/13/40 17/17/41 9/11/42 11/15/43 18/16/44
s 4
f 6/9/17 5/18/20 10/26/45 14/19/46
s 2
f 7/10/8 6/20/7 14/12/47 16/21/48
s 3
f 8/25/13 7/22/16 16/23/49 12/24/50
s 1
f 5/18/1 8/25/4 12/24/51 10/26/52
