# This file uses centimeters as units for non-parametric coordinates.

mtllib rightHedge2.mtl
g default
v 4.001602 55.314178 -45.314178
v 4.001602 60.000000 -34.001602
v 15.314178 55.314178 -34.001602
v 20.000000 44.001598 -34.001602
v 15.314178 44.001598 -45.314178
v 4.001602 44.001598 -50.000000
v -15.314178 44.001598 -45.314178
v -20.000000 44.001598 -34.001602
v -15.314178 55.314178 -34.001602
v -4.001617 60.000000 -34.001602
v -4.001617 55.314178 -45.314178
v -4.001617 44.001598 -50.000000
v 4.001602 0.000000 -50.000000
v 15.314178 0.000000 -45.314178
v 20.000000 0.000000 -34.001602
v -4.001617 0.000000 -50.000000
v -20.000000 0.000000 -34.001602
v -15.314178 0.000000 -45.314178
v 13.235062 53.235054 -43.235062
v -13.235077 53.235054 -43.235062
v 20.000000 0.000000 0.000000
v 20.000000 44.001598 0.000000
v 15.314178 55.314178 0.000000
v 4.001602 60.000000 0.000000
v -4.001617 60.000000 0.000000
v -15.314178 55.314178 0.000000
v -20.000000 44.001598 0.000000
v -20.000000 0.000000 0.000000
vt 0.585004 0.349990
vt 0.625000 0.338467
vt 0.625000 0.411533
vt 0.585004 0.400010
vt 0.713467 0.250000
vt 0.724990 0.183340
vt 0.775010 0.183340
vt 0.786533 0.250000
vt 0.647462 0.187895
vt 0.625000 0.000000
vt 0.724990 -0.000000
vt 0.585004 0.183340
vt 0.585004 0.000000
vt 0.585004 0.566660
vt 0.625000 0.545120
vt 0.625000 0.750000
vt 0.585004 0.750000
vt 0.875000 0.204880
vt 0.775010 -0.000000
vt 0.875000 0.000000
vt 0.625000 0.250000
vt 0.587017 0.264059
vt 0.875000 0.250000
vt 0.587017 0.485941
vt 0.625000 0.500000
vt 0.500000 0.183340
vt 0.500000 0.000000
vt 0.500000 0.264059
vt 0.500000 0.349990
vt 0.500000 0.400010
vt 0.500000 0.485941
vt 0.500000 0.566660
vt 0.500000 0.750000
vt 0.625000 0.849990
vt 0.625000 0.900010
vt 0.625000 1.000000
vt 0.585004 1.000000
vt 0.500000 1.000000
vn 0.223756 0.971083 -0.083254
vn 0.173629 0.917665 -0.357413
vn -0.173629 0.917665 -0.357413
vn -0.223756 0.971083 -0.083254
vn 0.173629 0.357412 -0.917665
vn 0.226115 0.067764 -0.971741
vn -0.226115 0.067764 -0.971741
vn -0.173629 0.357412 -0.917665
vn 0.375942 0.055127 -0.925002
vn 0.382683 0.000000 -0.923880
vn 0.235752 0.000000 -0.971813
vn 0.925002 0.055127 -0.375942
vn 0.992271 0.077838 -0.096638
vn 0.994696 0.000000 -0.102859
vn 0.923880 0.000000 -0.382683
vn -0.992271 0.077838 -0.096638
vn -0.925002 0.055127 -0.375942
vn -0.923880 0.000000 -0.382683
vn -0.994696 0.000000 -0.102859
vn -0.375943 0.055127 -0.925002
vn -0.235753 0.000000 -0.971813
vn -0.382684 0.000000 -0.923879
vn 0.325269 0.325269 -0.887919
vn 0.374188 0.924851 -0.068072
vn 0.325269 0.887919 -0.325269
vn 0.924851 0.374188 -0.068071
vn 0.887919 0.325269 -0.325269
vn -0.325269 0.325269 -0.887919
vn -0.924851 0.374187 -0.068071
vn -0.887919 0.325269 -0.325269
vn -0.374188 0.924851 -0.068072
vn -0.325270 0.887919 -0.325269
vn 0.996431 0.084411 0.000000
vn 1.000000 0.000000 0.000000
vn 0.923880 0.382683 0.000000
vn 0.235752 0.971813 0.000000
vn 0.382683 0.923880 0.000000
vn -0.235753 0.971813 -0.000000
vn -0.382684 0.923879 -0.000000
vn -0.996431 0.084411 -0.000000
vn -0.923880 0.382683 -0.000000
vn -1.000000 0.000000 -0.000000
vn 0.000000 -1.000000 0.000000
vn 0.000000 -1.000000 0.000000
vn 0.000000 -1.000000 0.000000
vn 0.000000 -1.000000 0.000000
vn 0.000000 -1.000000 0.000000
vn 0.000000 -1.000000 0.000000
vn 0.000000 -1.000000 0.000000
vn 0.000000 -1.000000 0.000000
vn 0.000000 0.000000 1.000000
vn 0.000000 0.000000 1.000000
vn 0.000000 0.000000 1.000000
vn 0.000000 0.000000 1.000000
vn 0.000000 0.000000 1.000000
vn 0.000000 0.000000 1.000000
vn 0.000000 0.000000 1.000000
vn 0.000000 0.000000 1.000000
s 1
g rightHedge2 hedges
usemtl lambert5SG
f 2/1/1 1/2/2 11/3/3 10/4/4
s 2
f 1/5/5 6/6/6 12/7/7 11/8/8
f 6/6/6 5/9/9 14/10/10 13/11/11
s 3
f 5/9/12 4/12/13 15/13/14 14/10/15
s 4
f 8/14/16 7/15/17 18/16/18 17/17/19
s 2
f 7/18/20 12/7/7 16/19/21 18/20/22
f 6/6/6 13/11/11 16/19/21 12/7/7
f 5/9/9 6/6/6 1/5/5 19/21/23
s 1
f 1/2/2 2/1/1 3/22/24 19/21/25
s 3
f 3/22/26 4/12/13 5/9/12 19/21/27
s 2
f 11/8/8 12/7/7 7/18/20 20/23/28
s 4
f 7/15/17 8/14/16 9/24/29 20/25/30
s 1
f 9/24/31 10/4/4 11/3/3 20/25/32
s 3
f 22/26/33 21/27/34 15/13/14 4/12/13
f 23/28/35 22/26/33 4/12/13 3/22/26
s 1
f 24/29/36 23/28/37 3/22/24 2/1/1
f 25/30/38 24/29/36 2/1/1 10/4/4
f 26/31/39 25/30/38 10/4/4 9/24/31
s 4
f 27/32/40 26/31/41 9/24/29 8/14/16
f 28/33/42 27/32/40 8/14/16 17/17/19
s off
f 16/34/43 13/35/44 14/36/45 15/37/46 21/38/47 28/33/48 17/17/49 18/16/50
s 5
f 26/31/51 23/28/52 24/29/53 25/30/54
f 22/26/55 27/32/56 28/33/57 21/27/58
f 22/26/55 23/28/52 26/31/51 27/32/56
