# This file uses centimeters as units for non-parametric coordinates.

mtllib rock5.mtl
g default
v -41.460849 41.181054 32.373953
v 45.497735 41.181054 15.532157
v 8.346769 71.033518 -32.046543
v 8.346769 11.328591 -32.046543
v 4.036886 41.181054 47.906110
v 40.702622 63.747397 -12.483703
v -33.114080 71.033518 0.327410
v 14.299414 75.651711 18.313051
v 40.702622 18.614712 -12.483703
v 12.619129 41.181054 -48.449823
v 41.460849 41.181054 -32.373953
v -33.114080 11.328591 0.327410
v -28.598827 41.181054 -36.626101
v 14.299414 6.710398 18.313051
v -43.857404 52.464226 24.596158
v -29.815658 41.181054 42.579218
v 9.078728 55.879391 43.189716
v -18.359078 77.926896 8.050519
v -31.161913 56.125979 37.112760
v 35.918855 41.181054 29.848015
v 47.623089 50.996484 4.783987
v 35.365786 69.515760 -3.383564
v 40.798764 54.099480 18.961664
v 23.192765 70.627343 -26.503573
v -6.206381 75.030568 -24.101161
v 11.860533 77.352642 -18.099107
v 47.623089 31.365625 4.783987
v 43.729094 27.483805 -22.431508
v 43.729094 54.878304 -22.431508
v 50.348138 41.181054 -7.199286
v 23.192765 11.734766 -26.503573
v 10.977602 21.550196 -42.147353
v 26.683062 41.181054 -44.262112
v 26.981263 22.404725 -37.124902
v 10.977602 60.811913 -42.147353
v 26.981263 59.957384 -37.124902
v -43.857404 29.897883 24.596158
v -36.650950 63.228559 -15.375615
v -36.650950 19.133550 -15.375615
v -49.760657 41.181054 13.293619
v 0.103648 41.181054 -48.543269
v -4.216262 64.434219 -38.688423
v -6.206381 7.331541 -24.101161
v -4.216262 17.927889 -38.688423
v -18.359078 4.435213 8.050519
v 9.078728 26.482718 43.189716
v -31.161913 26.236130 37.112760
v 35.365786 12.846349 -3.383564
v 11.860533 5.009467 -18.099106
v 40.798764 28.262629 18.961664
vt 0.500000 0.500000
vt 0.833333 0.500000
vt 0.113593 0.769947
vt 0.113593 0.230053
vt 0.666667 0.500000
vt 0.934963 0.691875
vt 0.386407 0.769947
vt 0.750000 0.833333
vt 0.934963 0.308125
vt 0.113593 0.500000
vt 1.000000 0.500000
vt 0.386407 0.230053
vt 0.250000 0.500000
vt 0.750000 0.166667
vt 0.472704 0.591487
vt 0.553074 0.500000
vt 0.684963 0.620394
vt 0.455272 0.874425
vt 0.537573 0.622519
vt 0.780259 0.500000
vt 0.868696 0.579313
vt 0.900507 0.752151
vt 0.817543 0.605215
vt 0.033934 0.765078
vt 0.191523 0.823652
vt 0.058477 0.862969
vt 0.868696 0.420687
vt 0.966066 0.388176
vt 0.966066 0.611824
vt 0.908321 0.500000
vt 0.033934 0.234922
vt 0.113593 0.335828
vt 0.065037 0.500000
vt 0.049977 0.343630
vt 0.113593 0.664172
vt 0.049977 0.656370
vt 0.472704 0.408513
vt 0.323138 0.686866
vt 0.323138 0.313134
vt 0.428630 0.500000
vt 0.153569 0.500000
vt 0.170342 0.698592
vt 0.191523 0.176348
vt 0.170342 0.301407
vt 0.455272 0.125575
vt 0.684963 0.379606
vt 0.537573 0.377481
vt 0.900507 0.247849
vt 0.058477 0.137031
vt 0.817543 0.394785
vt 1.033934 0.765078
vt 1.058477 0.862969
vt 1.033934 0.234922
vt 1.049977 0.343630
vt 1.065037 0.500000
vt 1.049977 0.656370
vt 1.058477 0.137031
vn -0.545107 0.766520 0.339566
vn -0.545107 0.766520 0.339566
vn -0.545107 0.766520 0.339566
vn -0.545107 0.766520 0.339566
vn -0.680484 0.250601 0.688579
vn -0.680484 0.250601 0.688579
vn -0.680484 0.250601 0.688579
vn -0.680484 0.250601 0.688579
vn -0.142105 0.337383 0.930580
vn -0.142105 0.337383 0.930580
vn -0.142105 0.337383 0.930580
vn -0.142105 0.337383 0.930580
vn -0.103368 0.804203 0.585297
vn -0.103368 0.804203 0.585297
vn -0.103368 0.804203 0.585297
vn -0.103368 0.804203 0.585297
vn 0.539826 0.258636 0.801059
vn 0.539826 0.258636 0.801059
vn 0.539826 0.258636 0.801059
vn 0.539826 0.258636 0.801059
vn 0.860055 0.186798 0.474775
vn 0.860055 0.186798 0.474775
vn 0.860055 0.186798 0.474775
vn 0.860055 0.186798 0.474775
vn 0.781578 0.597035 0.180790
vn 0.781578 0.597035 0.180790
vn 0.781578 0.597035 0.180790
vn 0.781578 0.597035 0.180790
vn 0.538272 0.676936 0.502016
vn 0.538272 0.676936 0.502016
vn 0.538272 0.676936 0.502016
vn 0.538272 0.676936 0.502016
vn 0.449211 0.871977 -0.194592
vn 0.449211 0.871977 -0.194592
vn 0.449211 0.871977 -0.194592
vn 0.449211 0.871977 -0.194592
vn 0.099072 0.896773 -0.431258
vn 0.099072 0.896773 -0.431258
vn 0.099072 0.896773 -0.431258
vn 0.099072 0.896773 -0.431258
vn -0.202676 0.965486 -0.163582
vn -0.202676 0.965486 -0.163582
vn -0.202676 0.965486 -0.163582
vn -0.202676 0.965486 -0.163582
vn 0.161892 0.986180 0.035224
vn 0.161892 0.986180 0.035224
vn 0.161892 0.986180 0.035224
vn 0.161892 0.986180 0.035224
vn 0.923198 0.376236 -0.078428
vn 0.923198 0.376236 -0.078428
vn 0.923198 0.376236 -0.078428
vn 0.923198 0.376236 -0.078428
vn 0.977984 0.000000 0.208681
vn 0.977984 0.000000 0.208681
vn 0.977984 0.000000 0.208681
vn 0.977984 0.000000 0.208681
vn 0.923198 -0.376236 -0.078428
vn 0.923198 -0.376236 -0.078428
vn 0.923198 -0.376236 -0.078428
vn 0.923198 -0.376236 -0.078428
vn 0.942966 0.000000 -0.332890
vn 0.942966 0.000000 -0.332890
vn 0.942966 0.000000 -0.332890
vn 0.942966 0.000000 -0.332890
vn 0.600273 -0.669682 -0.437262
vn 0.600273 -0.669682 -0.437262
vn 0.600273 -0.669682 -0.437262
vn 0.600273 -0.669682 -0.437262
vn 0.251168 -0.719456 -0.647531
vn 0.251168 -0.719456 -0.647531
vn 0.251168 -0.719456 -0.647531
vn 0.251168 -0.719456 -0.647531
vn 0.285383 -0.325430 -0.901472
vn 0.285383 -0.325430 -0.901472
vn 0.285383 -0.325430 -0.901472
vn 0.285383 -0.325430 -0.901472
vn 0.640682 -0.317139 -0.699249
vn 0.640682 -0.317139 -0.699249
vn 0.640682 -0.317139 -0.699249
vn 0.640682 -0.317139 -0.699249
vn 0.285383 0.325430 -0.901472
vn 0.285383 0.325430 -0.901472
vn 0.285383 0.325430 -0.901472
vn 0.285383 0.325430 -0.901472
vn 0.251168 0.719456 -0.647531
vn 0.251168 0.719456 -0.647531
vn 0.251168 0.719456 -0.647531
vn 0.251168 0.719456 -0.647531
vn 0.600273 0.669682 -0.437262
vn 0.600273 0.669682 -0.437262
vn 0.600273 0.669682 -0.437262
vn 0.600273 0.669682 -0.437262
vn 0.640682 0.317139 -0.699249
vn 0.640682 0.317139 -0.699249
vn 0.640682 0.317139 -0.699249
vn 0.640682 0.317139 -0.699249
vn -0.878475 -0.476848 -0.029965
vn -0.878475 -0.476848 -0.029965
vn -0.878475 -0.476848 -0.029965
vn -0.878475 -0.476848 -0.029965
vn -0.917000 0.000000 0.398888
vn -0.917000 0.000000 0.398888
vn -0.917000 0.000000 0.398888
vn -0.917000 0.000000 0.398888
vn -0.878475 0.476847 -0.029965
vn -0.878475 0.476848 -0.029965
vn -0.878475 0.476847 -0.029965
vn -0.878475 0.476847 -0.029965
vn -0.920689 0.000000 -0.390296
vn -0.920689 0.000000 -0.390296
vn -0.920689 0.000000 -0.390296
vn -0.920689 0.000000 -0.390296
vn -0.432070 0.780382 -0.452018
vn -0.432070 0.780382 -0.452018
vn -0.432070 0.780382 -0.452018
vn -0.432070 0.780382 -0.452018
vn -0.054844 0.758251 -0.649652
vn -0.054844 0.758251 -0.649652
vn -0.054844 0.758251 -0.649652
vn -0.054844 0.758251 -0.649652
vn -0.068884 0.343336 -0.936683
vn -0.068884 0.343336 -0.936683
vn -0.068884 0.343336 -0.936683
vn -0.068884 0.343336 -0.936683
vn -0.460718 0.413441 -0.785369
vn -0.460718 0.413441 -0.785369
vn -0.460718 0.413441 -0.785369
vn -0.460718 0.413441 -0.785369
vn -0.068884 -0.343336 -0.936683
vn -0.068884 -0.343336 -0.936683
vn -0.068884 -0.343336 -0.936683
vn -0.068884 -0.343336 -0.936683
vn -0.054844 -0.758251 -0.649652
vn -0.054844 -0.758251 -0.649652
vn -0.054844 -0.758251 -0.649652
vn -0.054844 -0.758251 -0.649652
vn -0.432070 -0.780382 -0.452018
vn -0.432070 -0.780382 -0.452018
vn -0.432070 -0.780382 -0.452018
vn -0.432070 -0.780382 -0.452018
vn -0.460718 -0.413441 -0.785369
vn -0.460718 -0.413441 -0.785369
vn -0.460718 -0.413441 -0.785369
vn -0.460718 -0.413441 -0.785369
vn -0.142105 -0.337383 0.930580
vn -0.142105 -0.337383 0.930580
vn -0.142105 -0.337383 0.930580
vn -0.142105 -0.337383 0.930580
vn -0.680484 -0.250601 0.688579
vn -0.680484 -0.250601 0.688579
vn -0.680484 -0.250601 0.688579
vn -0.680484 -0.250601 0.688579
vn -0.545107 -0.766520 0.339566
vn -0.545107 -0.766520 0.339566
vn -0.545107 -0.766520 0.339566
vn -0.545107 -0.766520 0.339566
vn -0.103368 -0.804203 0.585297
vn -0.103368 -0.804203 0.585297
vn -0.103368 -0.804203 0.585297
vn -0.103368 -0.804203 0.585297
vn -0.202676 -0.965486 -0.163582
vn -0.202676 -0.965486 -0.163582
vn -0.202676 -0.965486 -0.163582
vn -0.202676 -0.965486 -0.163582
vn 0.099072 -0.896773 -0.431258
vn 0.099072 -0.896773 -0.431257
vn 0.099072 -0.896773 -0.431258
vn 0.099072 -0.896773 -0.431258
vn 0.449211 -0.871977 -0.194592
vn 0.449211 -0.871977 -0.194592
vn 0.449211 -0.871977 -0.194592
vn 0.449211 -0.871977 -0.194592
vn 0.161892 -0.986180 0.035224
vn 0.161892 -0.986180 0.035224
vn 0.161892 -0.986180 0.035224
vn 0.161892 -0.986180 0.035224
vn 0.781578 -0.597035 0.180790
vn 0.781578 -0.597035 0.180790
vn 0.781578 -0.597035 0.180790
vn 0.781578 -0.597035 0.180790
vn 0.860055 -0.186798 0.474775
vn 0.860055 -0.186798 0.474775
vn 0.860055 -0.186798 0.474775
vn 0.860055 -0.186798 0.474775
vn 0.539826 -0.258636 0.801059
vn 0.539826 -0.258636 0.801059
vn 0.539826 -0.258636 0.801059
vn 0.539826 -0.258636 0.801059
vn 0.538272 -0.676936 0.502016
vn 0.538272 -0.676936 0.502016
vn 0.538272 -0.676936 0.502016
vn 0.538272 -0.676936 0.502016
s off
g rock5 rocks
usemtl lambert4SG
f 18/18/1 7/7/2 15/15/3 19/19/4
f 15/15/5 1/1/6 16/16/7 19/19/8
f 16/16/9 5/5/10 17/17/11 19/19/12
f 17/17/13 8/8/14 18/18/15 19/19/16
f 17/17/17 5/5/18 20/20/19 23/23/20
f 20/20/21 2/2/22 21/21/23 23/23/24
f 21/21/25 6/6/26 22/22/27 23/23/28
f 22/22/29 8/8/30 17/17/31 23/23/32
f 22/22/33 6/6/34 24/51/35 26/52/36
f 24/24/37 3/3/38 25/25/39 26/26/40
f 25/25/41 7/7/42 18/18/43 26/26/44
f 18/18/45 8/8/46 22/22/47 26/52/48
f 29/29/49 6/6/50 21/21/51 30/30/52
f 21/21/53 2/2/54 27/27/55 30/30/56
f 27/27/57 9/9/58 28/28/59 30/30/60
f 28/28/61 11/11/62 29/29/63 30/30/64
f 28/28/65 9/9/66 31/53/67 34/54/68
f 31/31/69 4/4/70 32/32/71 34/34/72
f 32/32/73 10/10/74 33/33/75 34/34/76
f 33/55/77 11/11/78 28/28/79 34/54/80
f 33/33/81 10/10/82 35/35/83 36/36/84
f 35/35/85 3/3/86 24/24/87 36/36/88
f 24/51/89 6/6/90 29/29/91 36/56/92
f 29/29/93 11/11/94 33/55/95 36/56/96
f 39/39/97 12/12/98 37/37/99 40/40/100
f 37/37/101 1/1/102 15/15/103 40/40/104
f 15/15/105 7/7/106 38/38/107 40/40/108
f 38/38/109 13/13/110 39/39/111 40/40/112
f 38/38/113 7/7/114 25/25/115 42/42/116
f 25/25/117 3/3/118 35/35/119 42/42/120
f 35/35/121 10/10/122 41/41/123 42/42/124
f 41/41/125 13/13/126 38/38/127 42/42/128
f 41/41/129 10/10/130 32/32/131 44/44/132
f 32/32/133 4/4/134 43/43/135 44/44/136
f 43/43/137 12/12/138 39/39/139 44/44/140
f 39/39/141 13/13/142 41/41/143 44/44/144
f 46/46/145 5/5/146 16/16/147 47/47/148
f 16/16/149 1/1/150 37/37/151 47/47/152
f 37/37/153 12/12/154 45/45/155 47/47/156
f 45/45/157 14/14/158 46/46/159 47/47/160
f 45/45/161 12/12/162 43/43/163 49/49/164
f 43/43/165 4/4/166 31/31/167 49/49/168
f 31/53/169 9/9/170 48/48/171 49/57/172
f 48/48/173 14/14/174 45/45/175 49/57/176
f 48/48/177 9/9/178 27/27/179 50/50/180
f 27/27/181 2/2/182 20/20/183 50/50/184
f 20/20/185 5/5/186 46/46/187 50/50/188
f 46/46/189 14/14/190 48/48/191 50/50/192
