# This file uses centimeters as units for non-parametric coordinates.

mtllib shrub.mtl
g default
v -38.531372 53.516797 37.295410
v -33.535217 72.162659 32.299316
v -19.885498 85.812378 18.649597
v 19.885498 85.812378 18.649536
v 33.535217 72.162659 32.299316
v 38.531372 53.516797 37.295410
v -19.885498 85.812378 -18.649597
v -33.535217 72.162659 -32.299316
v -38.531372 53.516797 -37.295471
v 19.885498 85.812378 -18.649597
v 33.535217 72.162659 -32.299316
v 38.531372 53.516797 -37.295471
v -51.584778 53.516797 -0.000031
v -44.839966 72.162659 0.000000
v -26.412842 85.812378 0.000000
v 26.412842 85.812378 -0.000031
v 44.839966 72.162659 0.000000
v 51.584778 53.516797 -0.000031
v 0.000000 53.516797 50.024261
v 0.000000 72.162659 43.377686
v 0.000000 85.812378 25.218750
v 0.000000 85.812378 -25.218781
v 0.000000 72.162659 -43.377716
v 0.000000 53.516797 -50.024323
v -27.958740 27.186810 26.899841
v -32.305298 31.122689 31.269104
v 0.000000 31.135914 41.945953
v 0.000000 27.186810 36.124054
v -32.305298 31.122685 -31.269135
v -27.958740 27.186810 -26.899841
v 0.000000 31.135907 -41.945953
v 0.000000 27.186810 -36.124054
v -43.246521 31.114712 0.000000
v -37.373657 27.186810 0.000000
v 32.305298 31.122685 -31.269135
v 27.945496 27.186810 -26.886414
v 43.246521 31.114712 0.000000
v 37.373657 27.186810 0.000000
v 27.945496 27.186810 26.886383
v 32.305298 31.122689 31.269104
v 0.000000 90.905198 0.010437
v 0.000000 90.905198 -0.010437
v 0.000000 27.186810 0.000000
vt 0.499953 0.375075
vt 0.433466 0.310651
vt 0.500000 0.310651
vt 0.375000 0.250000
vt 0.500000 0.250000
vt 0.375000 0.113898
vt 0.500000 0.113898
vt 0.750000 0.250000
vt 0.750000 0.113898
vt 0.875000 0.113898
vt 0.875000 0.250000
vt 0.566534 0.375000
vt 0.566534 0.439349
vt 0.625000 0.375000
vt 0.625000 0.500000
vt 0.250000 0.113898
vt 0.250000 0.250000
vt 0.125000 0.250000
vt 0.125000 0.113898
vt 0.375000 0.375000
vt 0.433466 0.375000
vt 0.433466 0.439349
vt 0.375000 0.500000
vt 0.499547 0.374729
vt 0.375000 0.636102
vt 0.500000 0.500000
vt 0.500000 0.636102
vt 0.500000 0.439349
vt 0.500000 0.375012
vt 0.566534 0.310651
vt 0.625000 0.250000
vt 0.625000 0.113898
vt 0.625000 0.636102
vt 0.360886 0.000000
vt 0.375000 0.017026
vt 0.250000 0.016991
vt 0.254827 0.000000
vt 0.388741 0.000000
vt 0.495524 0.000000
vt 0.500000 0.017083
vt 0.504476 0.000000
vt 0.611206 0.000000
vt 0.625000 0.017026
vt 0.125000 0.017026
vt 0.139114 0.000000
vt 0.245173 0.000000
vt 0.375000 0.750177
vt 0.375000 0.732974
vt 0.500000 0.732917
vt 0.500000 0.750000
vt 0.625000 0.732974
vt 0.625000 0.750000
vt 0.860832 0.000000
vt 0.875000 0.017026
vt 0.750000 0.016991
vt 0.754827 -0.000000
vt 0.745173 0.000000
vt 0.639168 0.000000
vt 0.625000 0.750178
vt 0.625000 0.875000
vt 0.500000 1.000000
vt 0.375000 0.999823
vt 0.375000 0.875000
vt 0.625000 0.999822
vt 0.500000 0.875000
vn -0.065279 0.978106 0.197606
vn -0.065279 0.978106 0.197606
vn -0.065279 0.978106 0.197606
vn -0.194695 0.784058 0.589362
vn -0.194695 0.784058 0.589362
vn -0.194695 0.784058 0.589362
vn -0.194695 0.784058 0.589362
vn -0.297119 0.320606 0.899407
vn -0.297119 0.320606 0.899407
vn -0.297119 0.320606 0.899406
vn -0.297119 0.320606 0.899406
vn 0.893231 0.323111 -0.312631
vn 0.893231 0.323111 -0.312631
vn 0.893231 0.323111 -0.312631
vn 0.893231 0.323111 -0.312631
vn 0.188889 0.979770 -0.066111
vn 0.188889 0.979771 -0.066111
vn 0.188889 0.979770 -0.066111
vn 0.582717 0.786667 -0.203951
vn 0.582717 0.786667 -0.203951
vn 0.582717 0.786667 -0.203951
vn 0.582717 0.786667 -0.203951
vn -0.893231 0.323111 -0.312631
vn -0.893231 0.323111 -0.312631
vn -0.893231 0.323111 -0.312631
vn -0.893231 0.323111 -0.312631
vn -0.582717 0.786667 -0.203950
vn -0.582717 0.786667 -0.203950
vn -0.582717 0.786667 -0.203950
vn -0.582717 0.786667 -0.203950
vn -0.188889 0.979771 -0.066111
vn -0.188889 0.979771 -0.066111
vn -0.188889 0.979771 -0.066111
vn -0.297119 0.320608 -0.899406
vn -0.297119 0.320608 -0.899406
vn -0.297119 0.320608 -0.899406
vn -0.297119 0.320608 -0.899406
vn -0.194696 0.784058 -0.589361
vn -0.194696 0.784058 -0.589361
vn -0.194696 0.784058 -0.589361
vn -0.194696 0.784058 -0.589361
vn -0.065434 0.978127 -0.197447
vn -0.065434 0.978127 -0.197447
vn -0.065434 0.978127 -0.197447
vn -0.065434 0.978128 -0.197447
vn -0.893231 0.323110 0.312631
vn -0.893231 0.323110 0.312631
vn -0.893231 0.323110 0.312631
vn -0.893231 0.323110 0.312631
vn -0.582717 0.786667 0.203950
vn -0.582717 0.786667 0.203950
vn -0.582717 0.786667 0.203950
vn -0.582717 0.786667 0.203950
vn -0.188939 0.979760 0.066129
vn -0.188939 0.979760 0.066129
vn -0.188940 0.979760 0.066129
vn 0.188940 0.979760 0.066129
vn 0.188940 0.979760 0.066129
vn 0.188940 0.979760 0.066129
vn 0.582716 0.786668 0.203950
vn 0.582716 0.786668 0.203950
vn 0.582716 0.786668 0.203950
vn 0.582716 0.786668 0.203950
vn 0.893231 0.323110 0.312631
vn 0.893231 0.323110 0.312631
vn 0.893231 0.323110 0.312631
vn 0.893231 0.323110 0.312631
vn 0.297119 0.320606 0.899406
vn 0.297119 0.320606 0.899406
vn 0.297119 0.320606 0.899407
vn 0.297119 0.320606 0.899407
vn 0.194696 0.784058 0.589361
vn 0.194696 0.784058 0.589361
vn 0.194696 0.784058 0.589361
vn 0.194696 0.784058 0.589361
vn 0.065280 0.978106 0.197606
vn 0.065280 0.978106 0.197606
vn 0.065280 0.978106 0.197606
vn 0.065434 0.978128 -0.197447
vn 0.065434 0.978127 -0.197447
vn 0.065434 0.978127 -0.197447
vn 0.065434 0.978127 -0.197447
vn 0.194696 0.784058 -0.589361
vn 0.194696 0.784058 -0.589361
vn 0.194696 0.784058 -0.589361
vn 0.194696 0.784058 -0.589361
vn 0.297119 0.320608 -0.899406
vn 0.297119 0.320608 -0.899406
vn 0.297119 0.320608 -0.899406
vn 0.297119 0.320608 -0.899406
vn -0.373512 -0.842843 0.387434
vn -0.374773 -0.842855 0.386188
vn -0.556212 -0.831041 0.000000
vn -0.556212 -0.831041 0.000000
vn 0.000086 -0.827806 0.561015
vn 0.000063 -0.827805 0.561015
vn 0.373137 -0.843188 0.387043
vn 0.374394 -0.843200 0.385801
vn -0.374772 -0.842855 -0.386188
vn -0.373512 -0.842843 -0.387432
vn 0.000062 -0.827806 -0.561014
vn 0.000086 -0.827806 -0.561014
vn 0.374394 -0.843201 -0.385800
vn 0.373137 -0.843189 -0.387043
vn 0.555581 -0.831462 0.000000
vn 0.555581 -0.831462 0.000000
vn -0.296734 -0.324217 0.898239
vn -0.296734 -0.324217 0.898239
vn -0.296734 -0.324217 0.898239
vn -0.296734 -0.324217 0.898239
vn -0.296733 -0.324218 -0.898238
vn -0.296733 -0.324218 -0.898238
vn -0.296733 -0.324218 -0.898238
vn -0.296733 -0.324218 -0.898238
vn 0.890504 -0.331454 -0.311676
vn 0.890504 -0.331454 -0.311676
vn 0.890504 -0.331454 -0.311676
vn 0.890504 -0.331454 -0.311676
vn -0.890504 -0.331454 -0.311676
vn -0.890504 -0.331454 -0.311676
vn -0.890503 -0.331454 -0.311676
vn -0.890504 -0.331454 -0.311676
vn 0.000000 -1.000000 0.000000
vn 0.000000 -1.000000 -0.000000
vn 0.000000 -1.000000 0.000000
vn 0.000000 -1.000000 0.000000
vn 0.000000 -1.000000 0.000000
vn -0.890504 -0.331453 0.311676
vn -0.890504 -0.331453 0.311676
vn -0.890504 -0.331453 0.311676
vn -0.890504 -0.331453 0.311676
vn 0.890504 -0.331453 0.311676
vn 0.890504 -0.331453 0.311676
vn 0.890504 -0.331453 0.311676
vn 0.890504 -0.331453 0.311676
vn 0.296734 -0.324217 0.898239
vn 0.296734 -0.324217 0.898239
vn 0.296734 -0.324217 0.898239
vn 0.296734 -0.324217 0.898239
vn 0.296733 -0.324218 -0.898238
vn 0.296733 -0.324218 -0.898238
vn 0.296733 -0.324218 -0.898238
vn 0.296733 -0.324218 -0.898238
vn 0.000000 -1.000000 -0.000000
vn 0.000000 -1.000000 0.000000
vn 0.000000 -1.000000 0.000000
vn 0.000000 -1.000000 0.000000
s off
g leaves3 shrub plants
usemtl lambert5SG
f 41/1/1 3/2/2 21/3/3
f 3/2/4 2/4/5 20/5/6 21/3/7
f 2/4/8 1/6/9 19/7/10 20/5/11
f 17/8/12 18/9/13 12/10/14 11/11/15
f 41/1/16 16/12/17 10/13/18
f 16/12/19 17/14/20 11/15/21 10/13/22
f 13/16/23 14/17/24 8/18/25 9/19/26
f 14/20/27 15/21/28 7/22/29 8/23/30
f 15/21/31 41/24/32 7/22/33
f 9/25/34 8/23/35 23/26/36 24/27/37
f 8/23/38 7/22/39 22/28/40 23/26/41
f 7/22/42 41/24/43 42/29/44 22/28/45
f 1/6/46 2/4/47 14/17/48 13/16/49
f 2/4/50 3/2/51 15/21/52 14/20/53
f 3/2/54 41/1/55 15/21/56
f 41/1/57 4/30/58 16/12/59
f 4/30/60 5/31/61 17/14/62 16/12/63
f 5/31/64 6/32/65 18/9/66 17/8/67
f 20/5/68 19/7/69 6/32/70 5/31/71
f 21/3/72 20/5/73 5/31/74 4/30/75
f 41/1/76 21/3/77 4/30/78
f 22/28/79 42/29/80 41/1/81 10/13/82
f 23/26/83 22/28/84 10/13/85 11/15/86
f 24/27/87 23/26/88 11/15/89 12/33/90
s 1
f 25/34/91 26/35/92 33/36/93 34/37/94
f 26/35/92 25/38/91 28/39/95 27/40/96
f 27/40/96 28/41/95 39/42/97 40/43/98
f 29/44/99 30/45/100 34/46/94 33/36/93
f 30/47/100 29/48/99 31/49/101 32/50/102
f 32/50/102 31/49/101 35/51/103 36/52/104
f 36/53/104 35/54/103 37/55/105 38/56/106
f 38/57/106 37/55/105 40/43/98 39/58/97
s off
f 26/35/107 27/40/108 19/7/109 1/6/110
f 9/25/111 24/27/112 31/49/113 29/48/114
f 18/9/115 37/55/116 35/54/117 12/10/118
f 29/44/119 33/36/120 13/16/121 9/19/122
s 2
f 28/61/123 25/62/124 43/65/125
f 34/63/126 30/47/127 43/65/125
s off
f 13/16/128 33/36/129 26/35/130 1/6/131
f 40/43/132 37/55/133 18/9/134 6/32/135
s 2
f 25/62/124 34/63/126 43/65/125
s off
f 19/7/136 27/40/137 40/43/138 6/32/139
f 31/49/140 24/27/141 12/33/142 35/51/143
s 2
f 39/64/144 28/61/123 43/65/125
f 38/60/145 43/65/125 36/59/146
f 36/59/146 43/65/125 32/50/147
f 39/64/144 43/65/125 38/60/145
f 32/50/147 43/65/125 30/47/127
g default
v 0.000000 90.905198 0.010437
v -8.211060 27.186810 -7.209961
v 8.211060 27.186810 -7.209961
v 8.211060 27.186810 7.209961
v -8.211060 27.186810 7.209961
v -8.211060 0.000001 -7.209961
v 8.211060 0.000001 -7.209961
v 8.211060 0.000001 7.209961
v -8.211060 0.000001 7.209961
v 10.734558 27.186810 0.000000
v 8.211060 0.000001 0.000000
v -8.211060 0.000001 0.000000
v -10.734558 27.186810 0.000000
v 0.000000 90.893387 0.000000
v 0.000000 90.905198 -0.010437
v 0.000000 27.186810 -9.922485
v 0.000000 0.000001 -10.399078
v 0.000000 0.000001 0.000000
v 0.000000 0.000001 10.399078
v 0.000000 27.186810 9.922485
v 0.000000 27.186810 0.000000
vt 0.499953 0.375075
vt 0.499547 0.374729
vt 0.375000 0.750000
vt 0.625000 0.750000
vt 0.625000 1.000000
vt 0.375000 1.000000
vt 0.625000 0.875000
vt 0.375000 0.875000
vt 0.500000 0.375000
vt 0.500000 0.375012
vt 0.500000 0.750000
vt 0.500000 0.875000
vt 0.500000 1.000000
vt 0.375000 0.750000
vt 0.625000 0.750000
vt 0.500000 1.000000
vt 0.375000 0.875000
vt 0.625000 0.875000
vt 0.375000 1.000000
vt 0.500000 0.750000
vt 0.625000 1.000000
vt 0.500000 0.875000
vn 0.000000 -1.000000 0.000000
vn 0.000000 -1.000000 0.000000
vn 0.000000 -1.000000 0.000000
vn 0.000000 -1.000000 0.000000
vn 1.000000 0.000000 0.000000
vn 1.000000 0.000000 0.000000
vn 1.000000 0.000000 0.000000
vn -0.338184 0.008248 -0.941044
vn -0.338184 0.008248 -0.941044
vn -0.338184 0.008248 -0.941044
vn -0.338184 0.008248 -0.941044
vn 0.984003 -0.045668 -0.172201
vn 0.984003 -0.045668 -0.172201
vn 0.984003 -0.045668 -0.172201
vn 0.984003 -0.045668 -0.172201
vn -0.338184 0.008248 0.941044
vn -0.338184 0.008248 0.941044
vn -0.338184 0.008248 0.941044
vn -0.338184 0.008248 0.941044
vn -0.984003 -0.045668 -0.172201
vn -0.984003 -0.045668 -0.172201
vn -0.984003 -0.045668 -0.172201
vn -0.984003 -0.045668 -0.172201
vn 0.984003 -0.045668 0.172201
vn 0.984003 -0.045668 0.172201
vn 0.984003 -0.045668 0.172201
vn 0.984003 -0.045668 0.172201
vn 0.000000 -1.000000 0.000000
vn 0.000000 -1.000000 0.000000
vn 0.000000 -1.000000 0.000000
vn 0.000000 -1.000000 0.000000
vn -0.984003 -0.045668 0.172201
vn -0.984003 -0.045668 0.172201
vn -0.984003 -0.045668 0.172201
vn -0.984003 -0.045668 0.172201
vn -1.000000 0.000000 0.000000
vn -1.000000 0.000000 0.000000
vn -1.000000 0.000000 0.000000
vn 0.338184 0.008248 -0.941044
vn 0.338184 0.008248 -0.941044
vn 0.338184 0.008248 -0.941044
vn 0.338184 0.008248 -0.941044
vn 0.000000 -1.000000 0.000000
vn 0.000000 -1.000000 0.000000
vn 0.000000 -1.000000 0.000000
vn 0.000000 -1.000000 0.000000
vn 0.000000 -1.000000 0.000000
vn 0.000000 -1.000000 0.000000
vn 0.000000 -1.000000 0.000000
vn 0.000000 -1.000000 0.000000
vn 0.338184 0.008248 0.941044
vn 0.338184 0.008248 0.941044
vn 0.338184 0.008248 0.941044
vn 0.338184 0.008248 0.941044
vn 0.000000 1.000000 0.000000
vn 0.000000 1.000000 0.000000
vn 0.000000 1.000000 0.000000
vn 0.000000 1.000000 0.000000
vn 0.000000 1.000000 -0.000000
vn 0.000000 1.000000 0.000000
vn 0.000000 1.000000 0.000000
vn 0.000000 1.000000 0.000000
vn 0.000000 1.000000 0.000000
s off
g shrub plants trunk3
usemtl lambert3SG
f 49/68/148 60/76/149 61/77/150 55/73/151
usemtl initialShadingGroup
f 44/67/152 57/74/153 58/75/154
usemtl lambert3SG
f 45/79/155 59/85/156 60/76/157 49/68/158
f 46/80/159 53/83/160 54/72/161 50/69/162
f 62/78/163 63/81/164 48/84/165 52/71/166
f 55/73/167 56/82/168 45/79/169 49/68/170
f 54/72/171 53/83/172 47/86/173 51/70/174
f 55/73/175 61/77/176 62/78/177 52/71/178
f 48/84/179 56/82/180 55/73/181 52/71/182
usemtl initialShadingGroup
f 58/75/183 57/74/184 44/66/185
usemtl lambert3SG
f 60/76/186 59/85/187 46/80/188 50/69/189
f 61/77/190 60/76/191 50/69/192 54/72/193
f 62/78/194 61/77/195 54/72/196 51/70/197
f 47/86/198 63/81/199 62/78/200 51/70/201
s 1
f 53/83/202 64/87/203 47/86/204
f 59/85/205 64/87/203 46/80/206
f 59/85/205 45/79/207 64/87/203
f 48/84/208 64/87/203 56/82/209
f 63/81/210 64/87/203 48/84/208
f 46/80/206 64/87/203 53/83/202
f 64/87/203 45/79/207 56/82/209
f 47/86/204 64/87/203 63/81/210
